<svg xmlns="http://www.w3.org/2000/svg" viewBox="0 0 512 512">
  <rect width="512" height="512" rx="140" fill="#0b0e14"/>
  <circle cx="256" cy="256" r="176" fill="#13181f" stroke="#00e5ff" stroke-width="18"/>
  <circle cx="256" cy="256" r="146" fill="none" stroke="#7c4dff" stroke-width="12" opacity="0.8"/>
  <path d="M194 154h92c51 0 84 27 84 71 0 30-16 49-38 59 31 9 52 33 52 69 0 52-39 83-98 83h-92V154zm77 108c24 0 38-11 38-29 0-17-13-27-36-27h-26v56h24zm12 120c30 0 47-13 47-35 0-21-16-33-44-33h-39v68h36z" fill="#e8eaf6"/>
</svg>
